<svg width="1921" height="803" viewBox="0 0 1921 803" fill="none" xmlns="http://www.w3.org/2000/svg">
<path d="M1034.5 622C1030.9 664.8 1044.33 760.5 1051.5 803H0.5V0H1920.5V800H1749.5C1777.9 756.8 1761.33 713.333 1749.5 697L1733 677C1720.33 671.833 1692 661.5 1680 661.5C1668 661.5 1631.67 671.833 1615 677C1621 635.8 1612.5 623.167 1607.5 622C1369.1 587.2 1126.17 607.5 1034.5 622Z" fill="black"/>
<path d="M1607 765.5L1600.5 797.5L1703.5 795C1744.3 773 1738.5 738.167 1730.5 723.5C1685.7 668.3 1647.5 700.5 1634 723.5L1620 758.5L1607 765.5Z" fill="black"/>
</svg>
