<?xml version="1.0" standalone="no"?>
<!DOCTYPE svg PUBLIC "-//W3C//DTD SVG 20010904//EN"
 "http://www.w3.org/TR/2001/REC-SVG-20010904/DTD/svg10.dtd">
<svg version="1.0" xmlns="http://www.w3.org/2000/svg"
 width="1280.000000pt" height="722.000000pt" viewBox="0 0 1280.000000 722.000000"
 preserveAspectRatio="xMidYMid meet">
<metadata>
Created by potrace 1.15, written by Peter Selinger 2001-2017
</metadata>
<g transform="translate(0.000000,722.000000) scale(0.100000,-0.100000)"
fill="#000000" stroke="none">
<path d="M8402 7210 c-23 -5 -104 -29 -180 -54 -101 -33 -171 -48 -268 -60
-229 -27 -287 -60 -329 -180 -13 -38 -22 -73 -20 -77 3 -4 -9 -12 -26 -18 -36
-12 -89 -66 -89 -90 0 -10 21 -36 46 -59 32 -28 44 -46 41 -59 -32 -111 -41
-468 -15 -564 16 -60 14 -71 -15 -82 -11 -4 -17 -14 -15 -24 2 -13 15 -19 46
-21 43 -3 43 -4 37 -34 -4 -16 -17 -51 -29 -77 -17 -36 -21 -64 -21 -136 1
-106 16 -156 81 -270 164 -285 168 -295 189 -444 8 -57 22 -115 30 -128 40
-60 138 -77 288 -48 43 8 102 15 131 15 l53 0 32 -82 c18 -46 35 -89 38 -96
13 -31 -30 4 -53 44 -41 70 -55 72 -108 18 -34 -34 -50 -60 -63 -105 -18 -60
-19 -61 -72 -80 -102 -36 -178 -101 -218 -187 -22 -47 -24 -62 -18 -120 12
-122 11 -126 -48 -244 -84 -170 -87 -188 -45 -368 25 -107 20 -172 -22 -256
-38 -78 -130 -182 -141 -162 -4 8 -13 63 -19 123 -19 187 -51 315 -79 315 -12
0 -13 -120 -1 -232 6 -57 31 -202 55 -323 72 -360 78 -402 78 -540 0 -123 -2
-136 -36 -241 -36 -107 -47 -187 -28 -198 24 -15 106 137 127 239 30 138 11
402 -45 640 l-19 78 49 71 c27 39 63 81 81 93 l31 22 81 -41 c114 -57 190
-111 267 -187 88 -89 123 -160 128 -264 4 -93 -3 -112 -80 -229 -31 -48 -63
-104 -70 -125 -7 -21 -42 -72 -79 -113 -37 -41 -112 -127 -167 -190 -138 -160
-225 -232 -373 -309 -68 -36 -152 -89 -187 -118 -98 -84 -153 -101 -190 -60
-36 39 -52 82 -77 208 -49 240 -59 369 -53 659 6 285 18 390 72 676 58 308 65
451 30 596 -22 87 -58 150 -105 183 -23 16 -58 48 -79 72 -35 41 -40 44 -121
57 -47 8 -104 19 -127 25 -56 15 -123 68 -140 109 -16 38 -23 41 88 -30 85
-54 136 -74 210 -84 46 -6 51 -5 48 12 -3 11 -24 29 -52 42 -26 12 -45 27 -42
32 11 18 109 10 206 -15 134 -35 226 -32 182 7 -32 27 -60 38 -158 58 -101 21
-228 68 -270 102 -28 21 -55 68 -55 93 0 25 59 18 121 -15 31 -16 76 -32 100
-36 28 -5 59 -20 85 -40 49 -41 103 -64 145 -64 28 0 30 2 18 16 -8 9 -50 44
-94 77 -44 34 -93 75 -109 92 -51 53 -93 170 -80 222 7 28 13 28 122 -1 64
-18 102 -15 102 8 0 26 -38 46 -115 61 -44 8 -86 22 -94 30 -14 13 -14 15 0
15 41 0 531 -69 538 -75 10 -10 -57 -17 -102 -11 -29 4 -71 10 -95 13 -32 4
-47 1 -62 -12 -11 -10 -20 -22 -20 -26 0 -5 24 -16 53 -26 42 -14 91 -17 262
-18 304 -2 279 2 270 -42 -11 -59 -52 -134 -102 -185 -46 -47 -141 -100 -200
-113 -42 -9 -44 -36 -3 -65 18 -13 30 -30 30 -44 0 -13 8 -47 19 -77 30 -88
33 -126 20 -240 -6 -59 -8 -125 -4 -146 l7 -37 19 24 c58 75 65 281 15 455
-14 50 -26 93 -26 96 0 4 24 18 53 32 67 33 130 96 172 172 39 70 85 216 88
277 2 41 0 43 -50 74 -65 39 -180 77 -303 101 -76 14 -146 18 -354 18 l-258 0
-35 -42 -34 -41 -36 15 c-43 18 -90 11 -128 -19 -60 -47 -51 -99 25 -148 88
-57 87 -52 34 -181 -62 -152 -62 -158 -25 -193 34 -32 41 -66 14 -66 -9 0 -35
11 -57 24 -79 46 -112 42 -150 -17 -23 -34 -16 -77 19 -123 35 -46 75 -68 227
-125 195 -73 259 -122 313 -242 57 -123 55 -249 -6 -478 -70 -266 -79 -318
-73 -414 5 -75 2 -110 -20 -208 -53 -241 -29 -534 80 -992 20 -86 28 -104 56
-128 90 -76 178 -55 354 85 38 30 143 103 234 163 126 83 187 131 261 204 161
162 326 405 345 506 10 60 30 92 60 98 26 5 26 4 20 -42 -5 -42 -3 -50 18 -70
14 -13 30 -45 37 -75 20 -84 56 -155 128 -251 37 -49 76 -105 87 -123 19 -33
19 -34 0 -48 -16 -11 -40 -13 -110 -8 -80 5 -102 3 -176 -20 -233 -71 -322
-95 -378 -102 -34 -3 -59 -10 -56 -15 16 -27 76 -43 189 -50 81 -5 178 -21
300 -48 99 -23 214 -44 255 -47 64 -6 83 -12 129 -43 30 -20 63 -50 73 -67 14
-25 31 -34 81 -48 87 -24 173 -70 333 -178 77 -52 154 -100 172 -107 17 -7 32
-17 32 -22 0 -17 67 -83 138 -136 41 -30 106 -82 145 -114 54 -46 78 -59 103
-59 44 0 64 -9 64 -29 0 -26 10 -32 32 -20 17 9 32 3 87 -34 140 -94 204 -122
409 -178 81 -22 171 -52 201 -67 43 -21 69 -27 120 -27 120 1 177 52 241 221
19 49 35 91 36 92 1 2 22 -8 46 -22 101 -59 268 -239 311 -336 14 -32 20 -67
21 -120 0 -63 -5 -84 -29 -134 -35 -70 -120 -157 -192 -198 -29 -17 -53 -32
-53 -34 0 -2 44 -4 98 -4 l97 0 83 70 c102 88 130 129 144 214 14 82 -6 174
-54 254 -31 51 -132 156 -250 261 l-57 50 57 45 c78 60 116 102 145 159 l24
49 6 -30 c8 -39 53 -91 94 -108 28 -12 33 -19 33 -49 0 -32 2 -35 19 -25 11 5
27 32 36 59 11 34 23 52 38 57 11 4 23 3 24 -2 15 -41 63 -111 84 -123 26 -14
28 -14 78 40 28 30 56 66 63 81 10 22 17 26 37 21 19 -5 29 0 47 22 23 28 44
27 44 -4 0 -15 -18 -45 -83 -140 -18 -27 -20 -86 -2 -86 21 0 89 108 164 260
44 88 95 185 115 215 l35 55 1 -40 c0 -52 -33 -129 -99 -234 -68 -108 -90
-161 -98 -233 l-6 -58 29 0 c70 1 166 66 234 159 43 59 60 68 60 31 0 -31 18
-32 70 -4 34 19 60 42 79 74 45 73 101 224 136 365 18 71 42 148 53 170 21 40
40 132 64 305 19 143 16 547 -5 685 -57 360 -176 624 -403 894 -137 164 -402
391 -455 391 -14 0 -61 18 -104 40 -83 42 -104 47 -123 28 -8 -8 19 -28 116
-82 282 -159 360 -209 369 -241 6 -22 15 -31 35 -33 41 -5 76 -44 163 -182
167 -262 290 -543 331 -755 16 -81 16 -83 -5 -104 -17 -17 -21 -33 -21 -93 -1
-40 -7 -86 -14 -103 -12 -27 -13 -15 -19 120 -3 83 -9 164 -13 180 l-8 30 -7
-25 c-4 -14 -7 -67 -8 -118 -1 -91 -15 -178 -32 -196 -5 -6 -9 46 -9 120 0 93
-5 146 -17 185 -14 46 -17 51 -22 30 -13 -48 -28 -32 -35 36 -5 47 -24 110
-62 205 -30 75 -57 151 -61 170 -3 18 -21 51 -39 74 -19 22 -44 65 -58 95 -13
30 -38 68 -56 84 -18 17 -72 82 -121 146 -48 64 -107 133 -131 152 -24 19
-106 70 -183 113 -77 42 -171 95 -210 116 -101 57 -187 93 -293 123 -109 31
-176 35 -199 12 -15 -15 -14 -17 11 -27 15 -5 51 -10 81 -10 48 0 79 -13 332
-137 l278 -138 155 -155 c188 -188 297 -337 399 -543 131 -264 170 -492 140
-817 -10 -117 -53 -348 -84 -453 -16 -57 -17 -58 -36 -41 -11 9 -21 15 -23 13
-2 -2 -32 -74 -66 -159 -76 -188 -120 -277 -171 -346 -34 -46 -59 -72 -59 -62
0 2 9 29 20 61 11 31 20 70 20 87 0 24 15 48 65 105 64 73 80 106 73 142 -3
14 -8 10 -22 -17 -10 -19 -25 -43 -34 -52 -50 -58 -39 43 12 109 42 54 51 80
66 196 7 53 21 106 35 131 33 62 37 90 25 200 -14 134 11 282 35 206 3 -11 14
-20 24 -20 14 0 17 6 13 25 -2 14 1 31 7 38 16 20 2 28 -35 21 -33 -6 -33 -6
-27 28 3 23 -1 46 -11 67 -9 17 -28 86 -41 154 -33 162 -57 232 -117 351 -162
314 -456 569 -788 681 -56 18 -68 27 -87 61 -26 47 -96 129 -147 175 -34 29
-41 32 -67 22 -25 -10 -29 -9 -29 7 0 10 -13 28 -29 39 -15 11 -42 49 -59 85
-17 36 -48 84 -68 106 -77 85 -332 256 -649 435 -242 136 -318 221 -312 348 2
60 -16 96 -39 76 -7 -6 -31 -44 -54 -85 -22 -40 -53 -83 -69 -95 -20 -15 -30
-32 -34 -60 -3 -22 -24 -71 -46 -108 -47 -77 -63 -124 -55 -157 4 -17 -3 -28
-31 -50 -36 -27 -37 -29 -31 -78 5 -34 0 -87 -15 -161 -29 -154 -25 -186 48
-336 72 -149 88 -211 73 -285 -11 -52 -12 -53 -103 -112 -114 -72 -222 -131
-307 -166 -54 -22 -71 -35 -94 -72 -15 -24 -55 -69 -88 -99 l-60 -54 6 -55 c8
-61 -4 -78 -34 -51 -20 18 -50 18 -161 -1 -34 -6 -37 -4 -54 32 -10 22 -31 89
-46 149 -15 61 -30 117 -34 127 -4 11 0 18 12 22 28 9 45 44 53 110 5 34 11
68 14 76 4 11 -10 23 -50 44 -31 16 -61 40 -66 52 -9 19 -15 21 -34 14 -29
-11 -62 0 -88 29 -16 18 -27 21 -60 16 -35 -6 -44 -3 -65 19 -13 14 -40 28
-60 32 -56 10 -108 49 -135 102 -13 26 -33 52 -45 59 -17 11 -18 17 -10 45 13
47 12 54 -15 85 -23 27 -23 29 -9 66 9 21 13 40 10 43 -11 11 -43 -37 -55 -81
-11 -42 -11 -49 8 -73 17 -20 20 -34 15 -64 -6 -33 -3 -43 24 -73 22 -25 31
-46 31 -71 0 -31 2 -34 24 -28 32 8 62 -10 70 -40 5 -21 10 -24 43 -19 33 4
46 -1 101 -42 35 -27 64 -56 66 -69 2 -11 10 -48 16 -81 7 -33 11 -78 9 -100
-16 -167 15 -337 69 -379 39 -30 72 -64 72 -74 0 -4 -16 -14 -36 -21 -19 -7
-59 -32 -88 -55 -28 -24 -63 -50 -78 -60 l-26 -17 -7 88 c-9 124 -27 203 -91
408 -60 193 -80 239 -113 269 l-21 19 0 -54 c0 -68 16 -126 74 -275 46 -120
76 -221 76 -258 0 -16 -6 -13 -32 19 -57 72 -164 173 -223 210 -63 41 -185 88
-252 100 -24 4 -43 9 -43 11 0 3 21 50 46 104 60 131 73 200 51 268 -31 93
-17 221 38 369 14 36 25 84 25 106 0 69 21 166 44 199 21 31 80 78 97 78 15 0
10 -29 -11 -70 -27 -53 -26 -60 16 -60 52 0 71 -14 121 -93 25 -40 73 -100
105 -134 60 -63 88 -113 88 -157 0 -39 -19 -41 -54 -7 -29 28 -46 32 -46 11 0
-4 38 -31 85 -60 47 -29 86 -58 86 -64 1 -6 2 -21 3 -33 2 -37 21 -30 24 9 2
28 -9 60 -48 138 -28 56 -51 114 -52 128 -1 54 22 272 33 319 14 54 43 118 60
129 17 10 26 -12 34 -82 10 -96 55 -115 55 -24 -1 64 -20 123 -88 265 -67 139
-67 140 -67 226 l0 86 -55 -13 c-30 -7 -93 -25 -140 -39 -110 -33 -178 -41
-224 -25 -65 21 -91 92 -66 180 16 56 4 94 -36 113 -43 21 -46 40 -3 25 45
-16 157 -5 206 21 44 22 63 46 63 80 0 27 -30 28 -120 4 -79 -20 -117 -13
-126 23 -4 15 -2 30 5 37 7 7 70 14 169 18 120 4 166 10 195 24 70 33 44 45
-96 45 -56 0 -119 5 -140 11 -32 9 -43 7 -71 -10 l-33 -21 -31 48 c-18 26 -52
73 -77 106 -59 76 -61 119 -10 229 28 61 35 88 35 137 0 40 6 72 17 90 14 24
15 34 3 74 -17 60 -62 104 -170 165 -98 56 -104 68 -95 186 9 104 30 167 101
301 35 67 64 125 64 128 0 3 -20 6 -44 6 -25 0 -48 5 -51 10 -13 20 7 72 41
105 43 43 77 53 249 71 151 15 168 19 290 70 106 43 180 51 285 30 45 -9 104
-26 131 -36 27 -11 69 -20 92 -20 64 -1 110 -27 252 -146 147 -124 244 -237
298 -347 37 -77 67 -175 67 -221 0 -20 6 -27 28 -32 15 -4 53 -19 85 -35 72
-36 78 -36 71 0 -7 34 7 46 36 31 16 -9 20 -21 20 -65 0 -64 19 -74 46 -24 29
56 -4 142 -66 174 -44 23 -73 18 -105 -15 -16 -16 -36 -30 -46 -30 -15 0 -17
11 -16 98 1 88 -1 104 -29 167 -137 317 -508 568 -859 580 -60 2 -129 0 -153
-5z"/>
<path d="M8315 7019 c-37 -6 -103 -29 -175 -63 -63 -30 -141 -65 -172 -79 -59
-26 -112 -72 -102 -88 10 -16 88 -9 154 15 36 13 104 40 153 60 48 21 124 44
170 53 116 21 169 52 116 66 -16 4 -19 11 -14 26 6 19 2 21 -32 20 -21 -1 -65
-5 -98 -10z"/>
<path d="M10398 6858 c-25 -51 -66 -129 -91 -172 l-46 -80 21 -38 c25 -44 41
-48 64 -13 9 14 25 25 35 25 22 0 24 12 7 40 -11 17 -7 24 34 59 85 75 115
194 63 246 -13 14 -28 25 -33 25 -5 0 -30 -42 -54 -92z"/>
<path d="M8310 6868 c0 -26 24 -38 76 -38 41 0 67 -8 118 -35 95 -50 135 -47
79 8 -43 40 -113 66 -197 74 -63 5 -76 3 -76 -9z"/>
<path d="M8832 6731 c-93 -32 -94 -50 -6 -106 31 -20 58 -45 61 -56 3 -10 12
-19 20 -19 12 0 14 8 10 35 -5 29 -3 35 12 35 9 0 27 13 39 30 l22 29 -27 30
c-37 39 -67 44 -131 22z"/>
<path d="M10607 6663 c-2 -5 -7 -20 -10 -34 -4 -14 -29 -59 -55 -101 -51 -78
-78 -140 -67 -158 8 -13 66 -13 100 0 16 6 32 25 44 52 10 24 31 54 46 68 54
50 69 109 39 155 -13 19 -25 25 -55 25 -21 0 -40 -3 -42 -7z"/>
<path d="M3133 6636 c-108 -40 -172 -87 -323 -231 -80 -77 -173 -161 -206
-187 -98 -74 -132 -163 -160 -413 -8 -77 -26 -207 -40 -290 -14 -82 -28 -202
-31 -266 -5 -100 -3 -126 15 -185 33 -110 34 -129 17 -309 -12 -136 -13 -185
-4 -247 6 -43 14 -78 18 -78 4 0 59 -9 122 -20 347 -63 628 -184 790 -343 31
-31 78 -67 105 -80 64 -32 144 -118 183 -195 17 -34 31 -64 31 -68 0 -3 -42
34 -93 83 -359 343 -738 531 -1144 569 l-71 7 -26 -40 c-14 -21 -41 -76 -60
-122 -18 -45 -44 -94 -57 -108 -13 -14 -111 -67 -217 -119 -173 -85 -199 -101
-261 -162 -114 -112 -156 -139 -411 -267 -135 -68 -266 -139 -292 -157 -44
-31 -228 -258 -228 -281 0 -6 -42 -67 -94 -136 -166 -223 -274 -403 -337 -562
l-19 -51 37 -34 c47 -43 37 -44 -125 -4 -158 38 -215 40 -238 5 -9 -14 -15
-27 -13 -30 2 -2 63 -13 134 -25 157 -25 363 -78 494 -126 53 -20 177 -78 276
-129 99 -51 204 -100 233 -110 35 -11 68 -32 97 -60 23 -24 88 -73 143 -109
55 -36 122 -88 149 -115 26 -27 64 -56 83 -64 62 -26 616 -570 809 -795 42
-48 59 -61 74 -56 13 4 29 -4 52 -26 l33 -32 65 11 c109 19 137 15 187 -25
110 -88 172 -104 186 -49 10 41 -13 169 -57 310 -44 142 -59 225 -40 225 6 0
24 -29 40 -64 16 -35 34 -67 41 -71 21 -13 6 220 -23 355 l-24 115 51 50 c29
28 102 114 164 191 105 133 211 244 233 244 6 0 -2 -19 -16 -42 -169 -279
-239 -484 -240 -703 0 -156 10 -215 36 -215 10 0 24 9 31 20 19 30 44 24 67
-15 38 -65 48 -48 53 82 4 121 23 187 51 179 6 -2 43 -12 80 -21 74 -19 79
-29 27 -60 -51 -31 -90 -71 -90 -93 0 -25 53 -46 154 -62 108 -17 156 -49 117
-76 -33 -23 -25 -42 22 -54 23 -6 57 -16 76 -22 18 -6 60 -11 91 -12 67 -1 72
12 -41 -112 -35 -39 -75 -92 -88 -119 -42 -85 -14 -172 72 -218 37 -20 56 -22
172 -22 92 1 148 6 194 18 72 21 88 15 49 -17 -61 -48 -10 -80 84 -52 65 19
134 62 212 132 33 30 64 54 69 54 6 0 7 -30 3 -79 -6 -75 -5 -81 20 -110 31
-37 52 -49 159 -86 90 -31 125 -52 144 -88 23 -43 74 -59 226 -69 l141 -10
121 59 c109 53 124 58 137 44 14 -13 21 -13 68 3 l53 18 150 256 c161 275 264
457 347 612 l52 98 -24 53 c-40 85 -103 163 -274 339 -89 91 -172 181 -185
200 -49 73 -285 152 -400 134 l-55 -9 -136 -235 c-169 -294 -223 -371 -333
-485 l-88 -90 5 75 c3 41 9 149 13 240 6 153 8 168 32 209 15 24 35 49 46 55
31 17 35 27 35 94 0 81 -19 124 -69 158 -34 22 -41 32 -41 60 0 24 8 39 29 56
28 22 29 25 21 73 -6 30 -5 98 2 173 19 211 0 251 -192 405 -69 55 -159 132
-200 171 -41 39 -129 109 -195 156 -66 47 -147 112 -181 145 -140 137 -251
368 -266 550 -3 34 0 40 17 42 11 1 66 7 123 13 102 12 104 12 150 -13 82 -43
151 -61 237 -61 133 0 209 50 235 155 10 40 9 51 -5 72 -17 27 -20 68 -16 203
2 46 -2 91 -8 102 -9 17 -7 25 11 41 12 12 36 24 55 27 32 6 33 7 33 58 0 79
15 93 105 98 65 3 78 7 101 29 21 22 26 35 26 78 -1 61 -16 110 -89 285 -29
71 -53 131 -53 135 0 3 20 17 45 30 38 20 45 29 45 53 0 35 12 59 58 116 24
29 36 56 39 85 5 39 1 48 -28 82 l-34 38 -1 191 c0 165 -3 202 -22 271 -24 85
-82 218 -110 248 -12 14 -19 45 -23 111 -4 69 -12 107 -31 148 -66 143 -223
216 -379 175 l-55 -14 -100 44 c-170 75 -215 86 -334 82 -187 -5 -254 -2 -332
15 -109 23 -199 20 -275 -8z"/>
<path d="M8507 6593 c16 -109 68 -210 138 -272 51 -45 147 -90 153 -73 2 7 16
38 31 67 l27 54 -104 93 c-114 102 -184 153 -225 163 -25 7 -26 6 -20 -32z"/>
<path d="M5420 6445 c-19 -21 -21 -27 -10 -40 20 -24 72 -15 86 14 7 13 10 30
7 37 -9 23 -57 16 -83 -11z"/>
<path d="M5544 6355 c3 -13 32 -51 64 -83 124 -127 183 -202 218 -277 91 -198
105 -416 35 -553 -25 -50 -125 -138 -339 -301 -156 -119 -208 -169 -284 -276
-82 -117 -89 -202 -28 -378 48 -139 51 -201 16 -330 -29 -106 -42 -187 -28
-187 16 0 30 23 43 74 9 36 20 53 40 65 38 22 53 86 54 231 0 91 -4 122 -17
147 -25 45 -43 54 -34 17 3 -16 9 -56 12 -89 l5 -60 -47 90 c-43 82 -47 96
-47 155 1 36 9 85 19 110 48 126 174 264 350 385 147 102 257 189 286 227 76
99 112 215 110 358 -1 212 -88 421 -241 584 -74 78 -127 116 -164 116 -26 0
-29 -3 -23 -25z"/>
<path d="M8270 6349 c-96 -19 -224 -107 -188 -131 18 -11 59 -1 155 38 89 37
134 41 227 23 40 -9 60 -9 68 -1 16 16 -58 60 -121 72 -61 11 -78 11 -141 -1z"/>
<path d="M9029 6292 c-71 -19 -123 -47 -114 -62 11 -17 80 -30 214 -41 126 -9
186 -18 239 -34 18 -6 22 -3 22 13 0 31 -58 92 -108 115 -63 27 -172 31 -253
9z"/>
<path d="M9740 6260 c0 -17 -9 -48 -20 -70 -23 -45 -25 -71 -7 -89 16 -17 -19
-44 -50 -38 -27 5 -30 -14 -7 -37 34 -34 106 -4 152 64 l23 35 -25 8 c-23 8
-25 14 -28 80 -2 59 -6 72 -20 75 -14 3 -18 -3 -18 -28z"/>
<path d="M8175 6113 c-14 -32 -31 -61 -38 -65 -7 -4 11 -17 47 -33 58 -26 59
-26 37 -41 -14 -10 -21 -24 -19 -37 3 -19 10 -22 60 -25 l57 -3 12 41 c14 46
36 60 98 60 20 0 46 6 57 14 48 37 -50 85 -174 86 l-74 0 7 30 c6 27 4 30 -18
30 -21 0 -30 -10 -52 -57z"/>
<path d="M8820 6060 c0 -25 -4 -30 -25 -30 -32 0 -31 -5 5 -58 22 -33 28 -51
23 -73 l-5 -29 88 0 c195 -1 334 -47 385 -128 25 -40 29 -55 29 -121 0 -42 4
-81 8 -87 15 -23 41 -22 73 2 18 13 41 24 51 24 22 0 24 -28 3 -36 -15 -6 -21
-34 -7 -34 4 0 28 23 53 52 40 44 52 52 82 52 30 0 39 5 54 33 23 43 7 56 -23
18 l-24 -30 0 27 c0 31 -15 45 -24 23 -3 -9 -19 -15 -40 -15 -30 0 -35 -4 -38
-27 -5 -39 -26 -40 -30 -1 -3 29 -7 33 -30 33 -25 -1 -28 3 -28 32 0 30 -11
46 -35 49 -5 0 -15 2 -21 2 -7 1 -15 13 -18 26 -15 60 -111 113 -239 131 l-48
7 28 15 c30 15 83 62 83 74 0 4 -11 10 -25 13 -14 4 -25 12 -25 19 0 8 -23 12
-77 12 -64 0 -89 5 -137 28 -32 15 -60 27 -62 27 -2 0 -4 -13 -4 -30z"/>
<path d="M9510 6071 c0 -25 21 -61 35 -61 12 0 15 6 9 23 -11 37 -44 65 -44
38z"/>
<path d="M9577 6053 c-2 -4 -1 -17 3 -28 7 -19 8 -19 15 -2 8 18 -9 46 -18 30z"/>
<path d="M9295 5981 c-3 -5 -1 -12 5 -16 12 -7 30 2 30 16 0 12 -27 12 -35 0z"/>
<path d="M9370 5961 c-51 -32 -65 -46 -74 -78 -7 -21 -4 -23 32 -23 22 0 56 7
75 15 41 17 74 11 57 -10 -6 -7 -23 -16 -38 -20 -31 -8 -52 -23 -52 -37 0 -17
57 -1 98 27 39 26 67 32 77 15 13 -22 25 -8 25 30 0 34 -3 40 -20 40 -27 0
-70 22 -94 49 -25 27 -32 26 -86 -8z"/>
<path d="M9767 5937 c-28 -8 -36 -15 -31 -26 3 -9 12 -38 20 -65 7 -27 22 -59
34 -70 l20 -20 -26 -21 c-17 -14 -27 -33 -31 -61 -5 -38 -9 -43 -44 -53 -22
-7 -39 -16 -39 -21 0 -18 63 -60 90 -60 59 0 103 123 104 295 l1 110 -30 1
c-16 1 -47 -3 -68 -9z"/>
<path d="M6525 5899 c-8 -25 -14 -21 65 -48 97 -34 200 -86 244 -122 38 -32
86 -116 86 -152 0 -10 -6 -28 -14 -40 -7 -12 -16 -51 -20 -86 -3 -36 -13 -75
-21 -87 -47 -72 21 -175 143 -218 38 -14 44 -14 49 -1 7 21 -13 43 -61 67
-105 52 -112 83 -57 246 47 139 50 178 17 247 -43 93 -131 147 -308 190 -57
14 -106 25 -110 25 -4 0 -10 -9 -13 -21z"/>
<path d="M9027 5763 c-3 -21 -9 -50 -12 -65 -6 -22 -4 -28 8 -28 36 0 59 69
37 111 -16 29 -27 23 -33 -18z"/>
<path d="M9188 5706 l-3 -58 -72 -40 c-49 -27 -89 -41 -127 -45 -41 -4 -57
-10 -61 -23 -7 -21 34 -110 49 -110 29 0 121 54 167 97 85 79 112 163 70 214
l-20 24 -3 -59z"/>
<path d="M8160 5614 c0 -62 77 -144 135 -144 44 0 44 13 5 72 -33 49 -65 75
-111 88 -26 8 -29 6 -29 -16z"/>
<path d="M7960 5613 c0 -23 29 -45 68 -50 44 -6 51 1 30 30 -14 18 -98 35 -98
20z"/>
<path d="M10998 5528 c-95 -95 -140 -166 -154 -240 -5 -33 -4 -38 13 -38 11 0
49 18 86 40 37 22 80 43 97 46 18 4 30 13 30 22 0 9 22 36 48 61 59 55 72 79
72 125 0 29 -5 38 -27 49 -67 34 -66 35 -165 -65z"/>
<path d="M9640 5489 c0 -47 -18 -83 -76 -152 -13 -16 -24 -41 -24 -57 0 -20
-6 -31 -20 -35 -46 -15 -61 -55 -20 -55 10 0 22 -5 25 -10 11 -18 -13 -37 -54
-44 -45 -7 -71 -30 -45 -40 8 -3 33 -6 54 -6 50 0 95 38 134 112 16 29 40 68
54 86 24 33 24 36 14 124 -6 59 -15 96 -26 106 -15 15 -16 13 -16 -29z"/>
<path d="M9130 5448 c0 -7 14 -27 32 -45 l32 -33 -32 -6 c-43 -9 -50 -23 -22
-46 30 -25 109 -24 159 2 37 18 81 63 81 81 0 17 -33 9 -62 -16 -39 -33 -49
-32 -42 4 5 23 1 32 -17 44 -31 19 -129 30 -129 15z"/>
<path d="M9171 5143 c17 -49 46 -117 66 -153 86 -160 226 -300 299 -300 19 0
34 5 34 10 0 6 -4 10 -8 10 -16 0 -33 53 -43 134 -12 107 -19 136 -29 136 -5
0 -10 -10 -12 -22 -2 -12 -9 -23 -17 -26 -9 -3 -11 0 -6 7 4 7 4 32 0 57 l-6
44 -65 0 c-61 0 -65 -1 -59 -20 18 -58 -36 11 -84 106 -21 42 -75 104 -91 104
-5 0 4 -39 21 -87z"/>
<path d="M7076 5109 c3 -14 -2 -53 -10 -86 -9 -34 -16 -66 -16 -72 0 -22 18
-10 34 23 20 43 21 116 1 142 -15 18 -15 18 -9 -7z"/>
<path d="M9795 5019 c-4 -12 -3 -25 2 -30 16 -16 43 2 43 27 0 31 -36 33 -45
3z"/>
<path d="M9642 4950 c10 -39 48 -90 67 -90 10 0 -24 96 -41 118 -6 6 -16 12
-23 12 -10 0 -11 -9 -3 -40z"/>
<path d="M11574 4948 c-52 -13 -127 -71 -158 -121 -40 -65 -32 -77 51 -77 117
0 193 53 193 135 0 58 -29 79 -86 63z"/>
<path d="M9590 4926 c0 -13 -5 -16 -20 -11 -18 6 -19 3 -13 -42 14 -106 34
-132 72 -94 22 22 22 23 5 81 -17 60 -44 100 -44 66z"/>
<path d="M1504 4839 c-11 -19 7 -78 34 -110 15 -17 38 -54 52 -82 30 -60 105
-127 146 -130 29 -2 29 -2 28 52 -3 79 -54 176 -116 217 -57 38 -135 67 -144
53z"/>
<path d="M1121 4736 c-16 -19 -20 -10 60 -131 75 -114 121 -159 179 -175 50
-13 84 -5 75 18 -24 66 -136 216 -196 264 -44 35 -99 47 -118 24z"/>
<path d="M8735 4360 c-4 -6 -9 -35 -12 -65 l-6 -55 35 0 c20 0 46 8 58 18 18
15 21 24 15 50 -10 47 -71 82 -90 52z"/>
<path d="M8075 4174 c-16 -25 -15 -54 3 -54 10 0 32 44 32 65 0 23 -16 18 -35
-11z"/>
<path d="M8034 4085 c-9 -21 3 -45 21 -45 10 0 15 10 15 30 0 32 -26 43 -36
15z"/>
<path d="M1053 4028 c-39 -19 -31 -64 21 -114 62 -59 139 -70 188 -27 15 13
13 18 -23 54 -21 21 -39 46 -39 54 0 9 -9 15 -24 15 -13 0 -40 7 -59 15 -20 8
-38 15 -39 14 -2 0 -13 -5 -25 -11z"/>
<path d="M7190 4035 c0 -3 29 -37 64 -74 84 -90 96 -129 67 -216 -21 -63 -26
-101 -15 -129 22 -57 104 55 104 142 0 103 -66 228 -142 268 -26 14 -78 19
-78 9z"/>
<path d="M5244 3919 c3 -17 6 -40 6 -50 0 -30 28 -22 46 12 14 27 19 30 47 25
18 -3 118 -10 222 -15 197 -10 247 -19 303 -53 37 -23 41 -45 10 -57 -17 -6
-42 -1 -88 17 -60 24 -77 26 -235 26 -113 1 -184 -3 -213 -12 -40 -12 -43 -15
-40 -45 2 -24 -1 -32 -16 -35 -21 -4 -36 13 -36 43 -1 43 -12 47 -151 54
l-134 7 37 17 c21 9 57 17 80 17 56 0 112 16 129 36 12 15 3 16 -111 12 -197
-7 -260 -47 -260 -168 0 -70 13 -118 56 -204 66 -131 161 -230 236 -245 25 -5
37 -15 50 -41 27 -57 34 -60 108 -60 89 0 120 -12 120 -45 0 -41 -25 -80 -90
-136 -63 -55 -100 -104 -100 -134 0 -10 12 -34 27 -54 27 -35 27 -39 29 -186
1 -82 9 -211 18 -285 9 -74 16 -190 16 -256 l0 -121 93 -6 c163 -9 265 -60
429 -215 169 -158 168 -158 123 -87 -136 217 -285 327 -488 358 l-77 12 -5
135 c-2 74 -11 216 -20 315 -8 98 -15 221 -15 272 0 86 2 94 26 116 18 17 27
39 33 78 4 31 18 70 33 91 15 23 30 64 37 105 31 176 53 217 182 333 125 113
168 189 117 206 -20 7 -16 9 22 17 25 5 56 10 70 11 29 1 30 -7 5 -99 -8 -33
-21 -80 -27 -105 -9 -34 -28 -62 -80 -115 -96 -100 -97 -106 -122 -462 l-5
-72 25 9 c21 8 27 5 47 -25 25 -39 55 -54 68 -34 16 25 10 47 -25 92 -46 61
-51 80 -23 92 28 13 53 66 62 133 6 44 4 52 -9 52 -10 0 -25 -18 -36 -42 l-19
-43 0 48 c-1 56 13 87 81 179 27 37 58 91 68 120 l18 53 79 3 c68 2 83 0 106
-18 31 -25 33 -47 13 -135 -13 -54 -29 -77 -60 -88 -8 -3 -7 -8 2 -18 7 -8 12
-42 12 -91 0 -66 5 -89 30 -145 36 -79 38 -119 6 -181 -32 -64 -42 -112 -23
-112 26 0 94 57 112 96 11 22 21 67 23 101 5 72 -20 136 -69 177 l-29 24 42
119 c53 155 62 260 26 313 -34 49 -63 62 -128 55 -39 -4 -61 -1 -74 8 -18 13
-18 16 3 77 21 63 28 144 13 167 -8 12 -88 37 -172 53 -48 9 -467 40 -544 40
-27 0 -28 -2 -22 -31z"/>
<path d="M8220 3938 c0 -18 18 -34 28 -24 3 4 -2 14 -11 23 -16 16 -17 16 -17
1z"/>
<path d="M409 3901 c-16 -16 -29 -38 -29 -48 0 -10 -3 -28 -6 -40 -5 -16 -2
-23 9 -23 8 0 22 10 30 23 l16 22 18 -21 c28 -33 72 -59 156 -94 71 -29 81
-31 104 -19 32 17 57 54 50 73 -9 22 -133 107 -195 132 -79 32 -116 31 -153
-5z"/>
<path d="M8270 3762 c0 -5 18 -18 40 -31 30 -17 40 -19 40 -8 0 20 -33 47 -58
47 -12 0 -22 -4 -22 -8z"/>
<path d="M6165 2720 c-4 -14 4 -41 25 -82 l32 -61 -22 -44 c-32 -63 -36 -113
-14 -141 l19 -22 23 33 c55 82 52 224 -6 296 -35 43 -48 48 -57 21z"/>
<path d="M6055 2450 c-12 -4 -26 -14 -33 -22 -16 -20 -72 -158 -64 -158 22 0
74 45 91 78 17 34 38 113 30 111 -2 0 -13 -4 -24 -9z"/>
<path d="M6136 2251 c-14 -26 -49 -88 -79 -138 -64 -103 -102 -189 -112 -251
-7 -42 -6 -43 14 -33 35 19 68 72 132 211 49 108 99 231 99 245 0 2 -7 5 -15
9 -10 4 -22 -9 -39 -43z"/>
<path d="M30 2072 c0 -31 15 -42 104 -72 48 -16 118 -46 155 -67 87 -50 118
-61 167 -62 54 -1 195 -71 400 -198 388 -241 665 -473 924 -774 60 -69 133
-144 162 -166 54 -42 158 -99 158 -87 0 47 -224 296 -568 633 -156 152 -364
307 -637 473 -277 168 -334 198 -409 213 -39 7 -120 31 -181 53 -102 36 -161
52 -242 66 -27 4 -33 2 -33 -12z"/>
<path d="M6160 1945 c-7 -9 -11 -17 -9 -20 7 -6 230 -23 389 -30 80 -3 188
-11 241 -16 54 -6 105 -9 114 -7 16 3 16 5 -2 27 -17 21 -26 23 -98 22 -44 -1
-129 5 -190 13 -60 8 -182 17 -271 21 -138 5 -163 3 -174 -10z"/>
<path d="M260 1896 c-10 -13 -8 -17 15 -26 36 -14 37 -13 33 12 -4 27 -30 35
-48 14z"/>
<path d="M1060 1771 c0 -11 90 -88 193 -164 179 -133 348 -293 668 -635 197
-210 219 -237 219 -268 0 -27 4 -34 20 -34 11 0 20 6 20 13 0 33 -30 108 -61
153 -49 73 -639 659 -749 745 -143 112 -310 214 -310 190z"/>
<path d="M1300 1696 c0 -8 53 -55 118 -105 171 -131 304 -254 616 -572 276
-282 278 -283 241 -214 -72 136 -192 283 -321 394 -39 34 -110 106 -159 161
-51 58 -111 115 -145 137 -132 85 -208 136 -259 173 -56 41 -91 51 -91 26z"/>
<path d="M12287 1678 c-11 -23 -13 -34 -5 -37 14 -5 38 27 38 51 0 28 -16 21
-33 -14z"/>
<path d="M388 1569 c-15 -8 -16 -13 -3 -50 23 -64 51 -96 139 -156 99 -69 356
-324 452 -449 38 -50 98 -134 134 -187 l65 -96 176 -1 177 0 -23 58 c-12 31
-30 77 -39 103 -21 58 -164 210 -352 376 -353 310 -518 413 -656 413 -29 0
-61 -5 -70 -11z"/>
<path d="M7780 1530 c-127 -9 -188 -23 -257 -56 -65 -31 -69 -47 -7 -28 108
32 273 46 484 41 272 -7 547 -51 817 -130 46 -14 80 -21 78 -16 -11 16 -215
89 -335 118 -192 46 -322 62 -600 75 -41 2 -122 0 -180 -4z"/>
<path d="M7420 1394 c-14 -36 -6 -67 31 -125 16 -25 32 -60 35 -78 6 -28 16
-37 75 -67 140 -70 296 -116 494 -145 103 -16 534 -19 688 -6 87 8 102 12 130
37 18 15 57 42 87 59 l55 33 -60 -7 c-441 -47 -1002 -3 -1312 105 -41 14 -76
36 -120 78 -52 49 -62 64 -65 97 -4 47 -24 57 -38 19z"/>
<path d="M7912 1386 c-29 -8 -55 -16 -59 -20 -3 -3 36 -6 88 -6 127 0 246 -14
490 -55 114 -19 210 -35 214 -35 5 0 0 9 -10 20 -38 42 -138 66 -390 95 -155
18 -261 18 -333 1z"/>
<path d="M8950 1300 c0 -11 48 -45 55 -38 3 2 -2 14 -11 26 -15 22 -44 30 -44
12z"/>
<path d="M9440 1038 c0 -29 9 -42 37 -57 20 -10 24 -8 38 18 26 51 21 61 -30
61 -40 0 -45 -2 -45 -22z"/>
<path d="M9045 874 c-101 -20 -125 -27 -130 -35 -4 -5 8 -8 26 -7 24 2 34 -2
37 -14 2 -13 -13 -20 -75 -35 -61 -14 -118 -18 -265 -18 -104 0 -188 -4 -188
-8 0 -21 70 -76 110 -87 52 -14 150 -2 270 35 141 42 161 46 263 52 75 4 144
-1 262 -17 155 -21 261 -21 294 -1 18 12 -8 20 -96 31 -41 5 -82 14 -93 20
-26 14 -26 47 0 55 41 13 18 22 -72 29 -96 6 -309 6 -343 0z"/>
<path d="M8456 863 c-10 -11 16 -33 38 -33 22 0 54 16 46 23 -9 8 -78 16 -84
10z"/>
<path d="M8580 861 c-19 -13 -7 -23 29 -27 26 -3 50 10 39 21 -10 10 -55 14
-68 6z"/>
<path d="M11822 808 c-17 -17 -15 -48 3 -48 14 0 35 29 35 49 0 15 -23 14 -38
-1z"/>
</g>
</svg>
