<svg xmlns="http://www.w3.org/2000/svg" width="1920" height="1260" viewBox="0 0 1920 1260">
  <defs>
    <style>
      .cls-1 {
        fill-rule: evenodd;
      }
    </style>
  </defs>
  <path id="Color_Fill_1" data-name="Color Fill 1" class="cls-1" d="M0,0H1920V789h-1c-21.54-7.713-43.55-.042-66,4l-52-1-43,5v-1c4.18-8.6,16.9-63.36,13-76-8.54-27.69-46.68-53.549-77-60-21.24-4.52-56.07,13.488-74,17v-1c3.94-9.608,7.56-36.192,2-48-93.16-32.092-217.87-25.563-342-26l-157-2c-28.97,5.426-59.01,15.35-91,17q1.005,61.993,2,124,9.495,34,19,68h-6c-27.02-7.365-57.148-3.183-88-8-40.222-6.28-92.549-8.386-133-2l-75-1c-16.074,3.23-35.265,14.189-55,11l-77-11H558l-46-16-77,16H396l-267-2L0,803V0ZM1669,706c11.53-.2,25.64,1.473,33,6,9.59,21.127,23.06,24.218,23,59l-27,26-63-3q-14.505,3.5-29,7,22.995-45,46-90C1655.06,713.3,1665.06,709.208,1669,706Z"/>
</svg>
